<?xml version="1.0" encoding="UTF-8" standalone="no"?>
<svg width="900px" height="650px" viewBox="0 0 900 650" version="1.1" xmlns="http://www.w3.org/2000/svg" xmlns:xlink="http://www.w3.org/1999/xlink" xmlns:sketch="http://www.bohemiancoding.com/sketch/ns">
    <!-- Generator: Sketch 3.2.2 (9983) - http://www.bohemiancoding.com/sketch -->
    <title>Untitled</title>
    <desc>Created with Sketch.</desc>
    <defs></defs>
    <g id="Page-1" stroke="none" stroke-width="1" fill="none" fill-rule="evenodd" sketch:type="MSPage">
        <rect id="Rectangle-1" fill="#F2F2F2" sketch:type="MSShapeGroup" x="0" y="0" width="900" height="650"></rect>
        <g id="Chat-2" sketch:type="MSLayerGroup" transform="translate(200.000000, 75.000000)">
            <path d="M500,250 C500,388.073864 388.073864,500 250,500 C111.926136,500 0,388.073864 0,250 C0,111.926136 111.926136,0 250,0 C388.073864,0 500,111.926136 500,250 L500,250 Z" id="Fill-1" fill="#25B7D3" sketch:type="MSShapeGroup"></path>
            <path d="M177.267045,304.556818 C177.267045,314.585227 185.414773,322.732955 195.443182,322.732955 L304.556818,322.732955 L359.085227,377.261364 L359.085227,322.732955 L377.261364,322.732955 C387.318182,322.732955 395.465909,314.585227 395.465909,304.556818 L395.465909,159.090909 C395.465909,149.056818 387.318182,140.914773 377.261364,140.914773 L195.443182,140.914773 C185.414773,140.914773 177.267045,149.056818 177.267045,159.090909 L177.267045,304.556818 Z" id="Fill-2" fill="#6FDAF1" sketch:type="MSShapeGroup"></path>
            <path d="M322.732955,268.176136 C322.732955,278.232955 314.585227,286.352273 304.556818,286.352273 L195.443182,286.352273 L140.914773,340.909091 L140.914773,286.352273 L122.738636,286.352273 C112.681818,286.352273 104.534091,278.232955 104.534091,268.176136 L104.534091,122.738636 C104.534091,112.681818 112.681818,104.534091 122.738636,104.534091 L304.556818,104.534091 C314.585227,104.534091 322.732955,112.681818 322.732955,122.738636 L322.732955,268.176136 Z" id="Fill-3" fill="#F0F1F1" sketch:type="MSShapeGroup"></path>
            <path d="M319.715909,112.727273 C316.448864,107.801136 310.880682,104.534091 304.556818,104.534091 L122.738636,104.534091 C112.681818,104.534091 104.534091,112.681818 104.534091,122.738636 L104.534091,268.176136 C104.534091,278.232955 112.681818,286.352273 122.738636,286.352273 L140.914773,286.352273 L140.914773,291.528409 L319.715909,112.727273 Z" id="Fill-4" fill="#FFFFFF" sketch:type="MSShapeGroup"></path>
            <path d="M177.267045,195.443182 C177.267045,205.5 169.125,213.647727 159.090909,213.647727 C149.056818,213.647727 140.914773,205.5 140.914773,195.443182 C140.914773,185.414773 149.056818,177.267045 159.090909,177.267045 C169.125,177.267045 177.267045,185.414773 177.267045,195.443182 L177.267045,195.443182 Z" id="Fill-5" fill="#21B2D1" sketch:type="MSShapeGroup"></path>
            <path d="M231.823864,195.443182 C231.823864,205.5 223.676136,213.647727 213.647727,213.647727 C203.590909,213.647727 195.443182,205.5 195.443182,195.443182 C195.443182,185.414773 203.590909,177.267045 213.647727,177.267045 C223.676136,177.267045 231.823864,185.414773 231.823864,195.443182 L231.823864,195.443182 Z" id="Fill-6" fill="#21B2D1" sketch:type="MSShapeGroup"></path>
            <path d="M286.352273,195.443182 C286.352273,205.5 278.232955,213.647727 268.176136,213.647727 C258.147727,213.647727 250,205.5 250,195.443182 C250,185.414773 258.147727,177.267045 268.176136,177.267045 C278.232955,177.267045 286.352273,185.414773 286.352273,195.443182 L286.352273,195.443182 Z" id="Fill-7" fill="#21B2D1" sketch:type="MSShapeGroup"></path>
        </g>
    </g>
</svg>