<?xml version="1.0" encoding="UTF-8" standalone="no"?>
<svg width="900px" height="650px" viewBox="0 0 900 650" version="1.1" xmlns="http://www.w3.org/2000/svg" xmlns:xlink="http://www.w3.org/1999/xlink" xmlns:sketch="http://www.bohemiancoding.com/sketch/ns">
    <!-- Generator: Sketch 3.2.2 (9983) - http://www.bohemiancoding.com/sketch -->
    <title>Untitled</title>
    <desc>Created with Sketch.</desc>
    <defs></defs>
    <g id="Page-1" stroke="none" stroke-width="1" fill="none" fill-rule="evenodd" sketch:type="MSPage">
        <rect id="Rectangle-1" fill="#F2F2F2" sketch:type="MSShapeGroup" x="0" y="0" width="900" height="650"></rect>
        <g id="Checklist" sketch:type="MSLayerGroup" transform="translate(200.000000, 75.000000)">
            <path d="M500,250 C500,388.073864 388.073864,500 250,500 C111.926136,500 0,388.073864 0,250 C0,111.926136 111.926136,0 250,0 C388.073864,0 500,111.926136 500,250 L500,250 Z" id="Fill-1" fill="#E04F5F" sketch:type="MSShapeGroup"></path>
            <path d="M104.534091,122.005682 C104.534091,112.346591 112.346591,104.534091 122.005682,104.534091 L250,104.534091 L322.732955,165.636364 L322.732955,377.994318 C322.732955,387.653409 314.920455,395.465909 305.267045,395.465909 L122.005682,395.465909 C112.346591,395.465909 104.534091,387.653409 104.534091,377.994318 L104.534091,122.005682 Z" id="Fill-2" fill="#FFFFFF" sketch:type="MSShapeGroup"></path>
            <path d="M250,104.534091 L250,148.170455 C250,157.823864 257.8125,165.636364 267.443182,165.636364 L322.732955,165.636364 L250,104.534091 Z" id="Fill-3" fill="#F0F1F1" sketch:type="MSShapeGroup"></path>
            <path d="M350.011364,188.630682 L372.738636,140.914773 L395.465909,188.630682 L395.465909,363.636364 L350.011364,363.636364 L350.011364,188.630682 Z" id="Fill-4" fill="#F4D0A1" sketch:type="MSShapeGroup"></path>
            <path d="M395.465909,213.647727 L395.465909,188.630682 L372.738636,140.914773 L372.738636,213.647727 L395.465909,213.647727 Z" id="Fill-5" fill="#EDBC7C" sketch:type="MSShapeGroup"></path>
            <path d="M395.465909,381.8125 C395.465909,389.357955 389.357955,395.465909 381.8125,395.465909 L363.636364,395.465909 C356.113636,395.465909 350.011364,389.357955 350.011364,381.8125 L350.011364,372.738636 L395.465909,372.738636 L395.465909,381.8125 Z" id="Fill-6" fill="#F79392" sketch:type="MSShapeGroup"></path>
            <path d="M281.829545,204.545455 C281.829545,207.051136 279.761364,209.096591 277.278409,209.096591 L209.096591,209.096591 C206.585227,209.096591 204.545455,207.051136 204.545455,204.545455 C204.545455,202.039773 206.585227,199.994318 209.096591,199.994318 L277.278409,199.994318 C279.761364,199.994318 281.829545,202.039773 281.829545,204.545455 L281.829545,204.545455 Z" id="Fill-7" fill="#E2E4E5" sketch:type="MSShapeGroup"></path>
            <path d="M254.551136,227.272727 C254.551136,229.778409 252.505682,231.823864 250,231.823864 L209.096591,231.823864 C206.585227,231.823864 204.545455,229.778409 204.545455,227.272727 C204.545455,224.767045 206.585227,222.721591 209.096591,222.721591 L250,222.721591 C252.505682,222.721591 254.551136,224.767045 254.551136,227.272727 L254.551136,227.272727 Z" id="Fill-8" fill="#E2E4E5" sketch:type="MSShapeGroup"></path>
            <path d="M281.829545,263.625 C281.829545,266.136364 279.761364,268.176136 277.278409,268.176136 L209.096591,268.176136 C206.585227,268.176136 204.545455,266.136364 204.545455,263.625 C204.545455,261.142045 206.585227,259.102273 209.096591,259.102273 L277.278409,259.102273 C279.761364,259.102273 281.829545,261.142045 281.829545,263.625 L281.829545,263.625 Z" id="Fill-9" fill="#E2E4E5" sketch:type="MSShapeGroup"></path>
            <path d="M254.551136,286.352273 C254.551136,288.863636 252.505682,290.903409 250,290.903409 L209.096591,290.903409 C206.585227,290.903409 204.545455,288.863636 204.545455,286.352273 C204.545455,283.869318 206.585227,281.829545 209.096591,281.829545 L250,281.829545 C252.505682,281.829545 254.551136,283.869318 254.551136,286.352273 L254.551136,286.352273 Z" id="Fill-10" fill="#E2E4E5" sketch:type="MSShapeGroup"></path>
            <path d="M281.829545,322.732955 C281.829545,325.215909 279.761364,327.284091 277.278409,327.284091 L209.096591,327.284091 C206.585227,327.284091 204.545455,325.215909 204.545455,322.732955 C204.545455,320.221591 206.585227,318.181818 209.096591,318.181818 L277.278409,318.181818 C279.761364,318.181818 281.829545,320.221591 281.829545,322.732955 L281.829545,322.732955 Z" id="Fill-11" fill="#E2E4E5" sketch:type="MSShapeGroup"></path>
            <path d="M254.551136,345.460227 C254.551136,347.943182 252.505682,350.011364 250,350.011364 L209.096591,350.011364 C206.585227,350.011364 204.545455,347.943182 204.545455,345.460227 C204.545455,342.948864 206.585227,340.909091 209.096591,340.909091 L250,340.909091 C252.505682,340.909091 254.551136,342.948864 254.551136,345.460227 L254.551136,345.460227 Z" id="Fill-12" fill="#E2E4E5" sketch:type="MSShapeGroup"></path>
            <path d="M159.403409,236.375 L142.244318,219.215909 C140.471591,217.443182 140.471591,214.556818 142.244318,212.778409 C144.022727,211.005682 146.903409,211.005682 148.659091,212.778409 L158.778409,222.897727 L178.335227,199.443182 C179.931818,197.511364 182.795455,197.267045 184.727273,198.863636 C186.659091,200.482955 186.920455,203.346591 185.301136,205.278409 L159.403409,236.375 Z" id="Fill-13" fill="#17B198" sketch:type="MSShapeGroup"></path>
            <path d="M159.403409,295.454545 L142.244318,278.295455 C140.471591,276.522727 140.471591,273.636364 142.244318,271.863636 C144.022727,270.085227 146.903409,270.085227 148.659091,271.863636 L158.778409,281.982955 L178.335227,258.545455 C179.931818,256.613636 182.795455,256.346591 184.727273,257.965909 C186.659091,259.568182 186.920455,262.431818 185.301136,264.357955 L159.403409,295.454545 Z" id="Fill-14" fill="#17B198" sketch:type="MSShapeGroup"></path>
            <path d="M159.403409,354.534091 L142.244318,337.380682 C140.471591,335.625 140.471591,332.738636 142.244318,330.965909 C144.022727,329.193182 146.903409,329.193182 148.659091,330.965909 L158.778409,341.085227 L178.335227,317.625 C179.931818,315.693182 182.795455,315.454545 184.727273,317.051136 C186.659091,318.670455 186.920455,321.534091 185.301136,323.443182 L159.403409,354.534091 Z" id="Fill-15" fill="#17B198" sketch:type="MSShapeGroup"></path>
            <path d="M350.011364,359.085227 L395.465909,359.085227 L395.465909,372.732955 L350.011364,372.732955 L350.011364,359.085227 Z" id="Fill-16" fill="#FACB1B" sketch:type="MSShapeGroup"></path>
            <path d="M350.011364,363.636364 L372.738636,363.636364 L372.738636,372.738636 L350.011364,372.738636 L350.011364,363.636364 Z" id="Fill-17" fill="#FBE158" sketch:type="MSShapeGroup"></path>
            <path d="M372.778409,140.846591 L364.346591,158.556818 C366.676136,161.642045 369.585227,163.573864 372.778409,163.573864 C376,163.573864 378.909091,161.642045 381.238636,158.556818 L372.778409,140.846591 Z" id="Fill-18" fill="#3E3E3F" sketch:type="MSShapeGroup"></path>
            <path d="M384.102273,195.443182 C378.840909,195.443182 374.420455,191.892045 373.113636,187.079545 C373,186.636364 372.448864,186.636364 372.335227,187.079545 C371.028409,191.892045 366.607955,195.443182 361.375,195.443182 C356.579545,195.443182 352.494318,192.494318 350.806818,188.323864 C350.630682,187.875 350.011364,187.988636 350.011364,188.477273 L350.011364,363.636364 L395.465909,363.636364 L395.465909,188.477273 C395.465909,187.988636 394.818182,187.875 394.642045,188.323864 C392.977273,192.494318 388.869318,195.443182 384.102273,195.443182 L384.102273,195.443182 Z" id="Fill-19" fill="#0484AB" sketch:type="MSShapeGroup"></path>
            <path d="M350.011364,363.636364 L350.011364,188.607955 C350.011364,188.096591 350.676136,187.965909 350.875,188.431818 C352.5625,192.5625 356.625,195.443182 361.375,195.443182 C366.630682,195.443182 371.073864,191.875 372.357955,187.011364 C372.403409,186.767045 372.738636,186.789773 372.738636,187.056818 L372.738636,363.636364 L350.011364,363.636364 Z" id="Fill-20" fill="#21B2D1" sketch:type="MSShapeGroup"></path>
            <path d="M350.011364,372.738636 L350.011364,381.8125 C350.011364,389.357955 356.113636,395.465909 363.636364,395.465909 L372.738636,395.465909 L372.738636,372.738636 L350.011364,372.738636 Z" id="Fill-21" fill="#F7B4B4" sketch:type="MSShapeGroup"></path>
        </g>
    </g>
</svg>