<?xml version="1.0" encoding="UTF-8" standalone="no"?>
<svg width="900px" height="650px" viewBox="0 0 900 650" version="1.1" xmlns="http://www.w3.org/2000/svg" xmlns:xlink="http://www.w3.org/1999/xlink" xmlns:sketch="http://www.bohemiancoding.com/sketch/ns">
    <!-- Generator: Sketch 3.2.2 (9983) - http://www.bohemiancoding.com/sketch -->
    <title>Untitled</title>
    <desc>Created with Sketch.</desc>
    <defs></defs>
    <g id="Page-1" stroke="none" stroke-width="1" fill="none" fill-rule="evenodd" sketch:type="MSPage">
        <rect id="Rectangle-1" fill="#F2F2F2" sketch:type="MSShapeGroup" x="0" y="0" width="900" height="650"></rect>
        <g id="Student-3" sketch:type="MSLayerGroup" transform="translate(200.000000, 75.000000)">
            <path d="M500,250 C500,388.073864 388.073864,500 250,500 C111.926136,500 0,388.073864 0,250 C0,111.926136 111.926136,0 250,0 C388.073864,0 500,111.926136 500,250 L500,250 Z" id="Fill-1" fill="#FABC3D" sketch:type="MSShapeGroup"></path>
            <path d="M304.556818,309.079545 L295.454545,304.534091 L204.545455,304.534091 L195.443182,309.079545 L250,395.465909 L304.556818,309.079545 Z" id="Fill-2" fill="#E2E4E5" sketch:type="MSShapeGroup"></path>
            <path d="M318.181818,204.545455 C313.630682,204.545455 313.630682,209.607955 313.630682,209.607955 L313.630682,204.545455 C313.630682,199.704545 313.545455,195.068182 313.323864,190.630682 C294.965909,172.738636 250,172.715909 250,172.715909 C250,172.715909 205.034091,172.738636 186.676136,190.630682 C186.454545,195.068182 186.369318,199.704545 186.369318,204.545455 L186.369318,240.897727 L204.545455,286.352273 L227.761364,304.511364 C230.335227,307.414773 234.039773,309.079545 237.926136,309.079545 L262.073864,309.079545 C265.960227,309.079545 269.664773,307.414773 272.238636,304.511364 L295.454545,286.352273 L310.034091,249.909091 C322.909091,248.977273 327.284091,229.426136 327.284091,214.642045 C327.284091,209.607955 322.732955,204.545455 318.181818,204.545455 L318.181818,204.545455 Z" id="Fill-3" fill="#F8E1C2" sketch:type="MSShapeGroup"></path>
            <path d="M186.369318,204.545455 L186.369318,209.607955 C186.369318,209.607955 186.369318,204.545455 181.818182,204.545455 C177.267045,204.545455 172.715909,209.607955 172.715909,214.642045 C172.715909,229.426136 177.090909,248.977273 189.965909,249.909091 L204.545455,286.352273 L227.761364,304.511364 C230.335227,307.414773 234.039773,309.079545 237.926136,309.079545 L250,309.079545 L250,172.715909 C250,172.715909 205.034091,172.738636 186.676136,190.630682 C186.454545,195.068182 186.369318,199.704545 186.369318,204.545455 L186.369318,204.545455 Z" id="Fill-4" fill="#FCF1E2" sketch:type="MSShapeGroup"></path>
            <path d="M227.272727,259.079545 L272.727273,259.079545 C272.727273,259.079545 272.727273,272.704545 250,272.704545 C227.272727,272.704545 227.272727,259.079545 227.272727,259.079545 L227.272727,259.079545 Z" id="Fill-5" fill="#F79392" sketch:type="MSShapeGroup"></path>
            <path d="M277.278409,215.107955 C282.693182,215.107955 287.488636,216.306818 290.818182,218.170455 C291.147727,215.596591 290.039773,212.9375 287.420455,210.960227 C282.738636,207.409091 275.147727,207.409091 270.465909,210.960227 C268.352273,212.556818 267.221591,214.602273 267.022727,216.6875 C269.954545,215.6875 273.482955,215.107955 277.278409,215.107955 L277.278409,215.107955 Z" id="Fill-6" fill="#3E3E3F" sketch:type="MSShapeGroup"></path>
            <path d="M222.698864,215.107955 C217.284091,215.107955 212.471591,216.306818 209.142045,218.170455 C208.829545,215.596591 209.914773,212.9375 212.534091,210.960227 C217.215909,207.409091 224.829545,207.409091 229.517045,210.960227 C231.625,212.556818 232.732955,214.602273 232.931818,216.6875 C230.022727,215.6875 226.494318,215.107955 222.698864,215.107955 L222.698864,215.107955 Z" id="Fill-7" fill="#3E3E3F" sketch:type="MSShapeGroup"></path>
            <path d="M262.073864,309.079545 L237.926136,309.079545 C234.039773,309.079545 230.335227,307.414773 227.761364,304.511364 L204.545455,286.352273 L204.545455,306.795455 C204.545455,306.795455 204.545455,340.886364 250,340.886364 C295.454545,340.886364 295.454545,306.795455 295.454545,306.795455 L295.454545,286.352273 L272.238636,304.511364 C269.664773,307.414773 265.960227,309.079545 262.073864,309.079545 L262.073864,309.079545 Z" id="Fill-8" fill="#F4D0A1" sketch:type="MSShapeGroup"></path>
            <path d="M250,172.715909 C250,172.715909 246.5625,172.715909 241.1875,173.096591 L241.1875,198.664773 C258.102273,198.664773 268.335227,186.477273 274.261364,174.869318 C260.965909,172.738636 250,172.715909 250,172.715909 L250,172.715909 Z" id="Fill-9" fill="#3E3E3F" sketch:type="MSShapeGroup"></path>
            <path d="M208.715909,178.778409 C200.107955,181.465909 191.9375,185.323864 186.369318,190.920455 C186.369318,207.011364 196.931818,214.778409 196.931818,214.778409 C195.579545,201.329545 195.511364,192.585227 208.715909,178.778409 L208.715909,178.778409 Z" id="Fill-10" fill="#3E3E3F" sketch:type="MSShapeGroup"></path>
            <path d="M213.022727,177.556818 L213.022727,198.6875 C226.051136,198.6875 236.414773,180.244318 239.926136,173.204545 C232.801136,173.761364 222.857955,174.960227 213.022727,177.556818 L213.022727,177.556818 Z" id="Fill-11" fill="#3E3E3F" sketch:type="MSShapeGroup"></path>
            <path d="M301.556818,182.75 L301.556818,214.778409 C312.875,214.778409 313.585227,193.579545 313.630682,190.920455 C310.346591,187.630682 306.198864,184.948864 301.556818,182.75 L301.556818,182.75 Z" id="Fill-12" fill="#3E3E3F" sketch:type="MSShapeGroup"></path>
            <path d="M281.448864,176.227273 L281.448864,198.6875 C296.698864,198.6875 301.090909,184.261364 301.511364,182.727273 C295.301136,179.778409 288.284091,177.6875 281.448864,176.227273 L281.448864,176.227273 Z" id="Fill-13" fill="#3E3E3F" sketch:type="MSShapeGroup"></path>
            <path d="M227.761364,304.511364 L204.545455,286.352273 L204.545455,306.795455 C204.545455,306.795455 204.545455,340.886364 250,340.886364 L250,309.079545 L237.926136,309.079545 C234.039773,309.079545 230.335227,307.414773 227.761364,304.511364 L227.761364,304.511364 Z" id="Fill-14" fill="#F8E1C2" sketch:type="MSShapeGroup"></path>
            <path d="M156.784091,242.943182 L156.784091,153.744318 C153.607955,152.607955 150.568182,151.5 147.681818,150.4375 L147.681818,242.943182 C135.829545,250.755682 143.130682,274.056818 143.130682,286.352273 L161.335227,286.352273 C161.335227,274.056818 168.636364,250.755682 156.784091,242.943182 L156.784091,242.943182 Z" id="Fill-15" fill="#FA5655" sketch:type="MSShapeGroup"></path>
            <path d="M372.738636,140.914773 C372.738636,136.363636 259.102273,104.534091 250,104.534091 C240.897727,104.534091 127.261364,136.363636 127.261364,140.914773 C127.261364,143.755682 161.045455,155.494318 186.369318,163.886364 L186.369318,190.920455 C204.545455,172.715909 250,172.715909 250,172.715909 C250,172.715909 295.454545,172.715909 313.630682,190.920455 L313.630682,163.886364 C338.954545,155.494318 372.738636,143.755682 372.738636,140.914773 L372.738636,140.914773 Z" id="Fill-16" fill="#3E3E3F" sketch:type="MSShapeGroup"></path>
            <path d="M304.375,309.346591 L304.556818,309.079545 L295.454545,304.556818 L250.068182,327.193182 L276.392045,353.670455 L304.375,309.346591 Z" id="Fill-17" fill="#FFFFFF" sketch:type="MSShapeGroup"></path>
            <path d="M268.176136,395.465909 L255.460227,349.096591 L263.625,340.909091 L249.909091,327.170455 L236.284091,340.795455 L244.539773,349.056818 L231.823864,395.465909 L268.176136,395.465909 Z" id="Fill-18" fill="#DF2C2C" sketch:type="MSShapeGroup"></path>
            <path d="M250,395.465909 L250,327.261364 L249.909091,327.170455 L236.284091,340.795455 L244.539773,349.056818 L231.823864,395.465909 L250,395.465909 Z" id="Fill-19" fill="#FA5655" sketch:type="MSShapeGroup"></path>
            <path d="M195.625,309.346591 L195.443182,309.079545 L204.545455,304.556818 L249.931818,327.193182 L223.607955,353.670455 L195.625,309.346591 Z" id="Fill-20" fill="#FFFFFF" sketch:type="MSShapeGroup"></path>
            <path d="M104.534091,395.465909 L122.738636,345.460227 C125.534091,339.397727 130.4375,334.585227 136.5625,331.897727 L195.443182,309.079545 L250,395.465909 L104.534091,395.465909 Z" id="Fill-21" fill="#3E3E3F" sketch:type="MSShapeGroup"></path>
            <path d="M395.465909,395.465909 L377.261364,345.460227 C374.465909,339.397727 369.5625,334.585227 363.4375,331.897727 L304.556818,309.079545 L250,395.465909 L395.465909,395.465909 Z" id="Fill-22" fill="#3E3E3F" sketch:type="MSShapeGroup"></path>
            <path d="M250,395.465909 L195.443182,309.079545 L154.539773,322.732955 L231.823864,395.465909 L250,395.465909 Z" id="Fill-23" fill="#9E9FA0" sketch:type="MSShapeGroup"></path>
            <path d="M250,395.465909 L304.556818,309.079545 L345.460227,322.732955 L268.176136,395.465909 L250,395.465909 Z" id="Fill-24" fill="#9E9FA0" sketch:type="MSShapeGroup"></path>
        </g>
    </g>
</svg>