<?xml version="1.0" encoding="UTF-8" standalone="no"?>
<svg width="900px" height="650px" viewBox="0 0 900 650" version="1.1" xmlns="http://www.w3.org/2000/svg" xmlns:xlink="http://www.w3.org/1999/xlink" xmlns:sketch="http://www.bohemiancoding.com/sketch/ns">
    <!-- Generator: Sketch 3.2.2 (9983) - http://www.bohemiancoding.com/sketch -->
    <title>Untitled</title>
    <desc>Created with Sketch.</desc>
    <defs></defs>
    <g id="Page-1" stroke="none" stroke-width="1" fill="none" fill-rule="evenodd" sketch:type="MSPage">
        <rect id="Rectangle-1" fill="#F2F2F2" sketch:type="MSShapeGroup" x="0" y="0" width="900" height="650"></rect>
        <g id="Money-Graph" sketch:type="MSLayerGroup" transform="translate(200.000000, 75.000000)">
            <path d="M500,255.590909 C500,393.664773 388.073864,505.590909 250,505.590909 C111.926136,505.590909 0,393.664773 0,255.590909 C0,117.522727 111.926136,5.59090909 250,5.59090909 C388.073864,5.59090909 500,117.522727 500,255.590909 L500,255.590909 Z" id="Fill-1" fill="#FABC3D" sketch:type="MSShapeGroup"></path>
            <path d="M395.465909,137.409091 L395.465909,373.778409 C395.465909,388.829545 383.232955,401.056818 368.1875,401.056818 L131.8125,401.056818 C116.767045,401.056818 104.534091,388.829545 104.534091,373.778409 L104.534091,137.409091 C104.534091,122.357955 116.767045,110.130682 131.8125,110.130682 L368.1875,110.130682 C383.232955,110.130682 395.465909,122.357955 395.465909,137.409091 L395.465909,137.409091 Z" id="Fill-2" fill="#0484AB" sketch:type="MSShapeGroup"></path>
            <path d="M395.465909,150.8125 L395.465909,373.778409 C395.465909,388.829545 383.232955,401.056818 368.1875,401.056818 L131.8125,401.056818 C116.767045,401.056818 104.534091,388.829545 104.534091,373.778409 L104.534091,311.323864 L155.494318,278.539773 L232.823864,292.193182 L303.397727,245.142045 L344.125,172.806818 L395.465909,150.8125 Z" id="Fill-3" fill="#059BBF" sketch:type="MSShapeGroup"></path>
            <path d="M395.465909,187.409091 L395.465909,178.3125 L363.636364,178.3125 L363.636364,160.136364 L354.534091,160.136364 L354.534091,178.3125 L331.806818,178.3125 L331.806818,187.409091 L354.534091,187.409091 L354.534091,214.6875 L327.284091,214.6875 L327.284091,201.039773 L318.181818,201.039773 L318.181818,214.6875 L313.630682,214.6875 L313.630682,223.767045 L318.181818,223.767045 L318.181818,251.045455 L281.829545,251.045455 L281.829545,287.420455 L254.551136,287.420455 L254.551136,278.318182 L245.448864,278.318182 L245.448864,287.420455 L218.170455,287.420455 L218.170455,282.846591 L209.096591,282.846591 L209.096591,287.420455 L181.818182,287.420455 L181.818182,278.318182 L172.715909,278.318182 L172.715909,287.420455 L145.465909,287.420455 L145.465909,282.846591 L136.363636,282.846591 L136.363636,287.420455 L126.267045,287.420455 L126.267045,296.5 L136.363636,296.5 L136.363636,323.772727 L104.534091,323.772727 L104.534091,332.875 L136.363636,332.875 L136.363636,360.130682 L104.534091,360.130682 L104.534091,369.227273 L136.363636,369.227273 L136.363636,401.034091 L145.465909,401.034091 L145.465909,369.227273 L172.715909,369.227273 L172.715909,401.056818 L181.818182,401.056818 L181.818182,369.227273 L209.096591,369.227273 L209.096591,401.034091 L218.170455,401.034091 L218.170455,369.227273 L245.448864,369.227273 L245.448864,401.056818 L254.551136,401.056818 L254.551136,369.227273 L281.829545,369.227273 L281.829545,401.056818 L290.903409,401.056818 L290.903409,369.227273 L318.181818,369.227273 L318.181818,401.056818 L327.284091,401.056818 L327.284091,369.227273 L354.534091,369.227273 L354.534091,401.056818 L363.636364,401.056818 L363.636364,369.227273 L395.465909,369.227273 L395.465909,360.130682 L363.636364,360.130682 L363.636364,332.875 L395.465909,332.875 L395.465909,323.772727 L363.636364,323.772727 L363.636364,296.5 L395.465909,296.5 L395.465909,287.420455 L363.636364,287.420455 L363.636364,260.142045 L395.465909,260.142045 L395.465909,251.045455 L363.636364,251.045455 L363.636364,223.767045 L395.465909,223.767045 L395.465909,214.6875 L363.636364,214.6875 L363.636364,187.409091 L395.465909,187.409091 Z M290.903409,260.142045 L318.181818,260.142045 L318.181818,287.420455 L290.903409,287.420455 L290.903409,260.142045 Z M318.181818,296.5 L318.181818,323.772727 L290.903409,323.772727 L290.903409,296.5 L318.181818,296.5 Z M281.829545,296.5 L281.829545,323.772727 L254.551136,323.772727 L254.551136,296.5 L281.829545,296.5 Z M245.448864,296.5 L245.448864,323.772727 L218.170455,323.772727 L218.170455,296.5 L245.448864,296.5 Z M209.096591,296.5 L209.096591,323.772727 L181.818182,323.772727 L181.818182,296.5 L209.096591,296.5 Z M145.465909,296.5 L172.715909,296.5 L172.715909,323.772727 L145.465909,323.772727 L145.465909,296.5 Z M145.465909,360.130682 L145.465909,332.875 L172.715909,332.875 L172.715909,360.130682 L145.465909,360.130682 Z M181.818182,360.130682 L181.818182,332.875 L209.096591,332.875 L209.096591,360.130682 L181.818182,360.130682 Z M218.170455,360.130682 L218.170455,332.875 L245.448864,332.875 L245.448864,360.130682 L218.170455,360.130682 Z M254.551136,360.130682 L254.551136,332.875 L281.829545,332.875 L281.829545,360.130682 L254.551136,360.130682 Z M290.903409,360.130682 L290.903409,332.875 L318.181818,332.875 L318.181818,360.130682 L290.903409,360.130682 Z M354.534091,360.130682 L327.284091,360.130682 L327.284091,332.875 L354.534091,332.875 L354.534091,360.130682 Z M354.534091,323.772727 L327.284091,323.772727 L327.284091,296.5 L354.534091,296.5 L354.534091,323.772727 Z M354.534091,287.420455 L327.284091,287.420455 L327.284091,260.142045 L354.534091,260.142045 L354.534091,287.420455 Z M354.534091,251.045455 L327.284091,251.045455 L327.284091,223.767045 L354.534091,223.767045 L354.534091,251.045455 Z" id="Fill-4" fill="#21B2D1" sketch:type="MSShapeGroup"></path>
            <path d="M395.465909,140.914773 L347.011364,161.642045 C334.852273,155.494318 322.3125,169.056818 329.210227,180.6875 L302.335227,228.5625 C292.613636,226.875 284.380682,235.619318 286.818182,245.295455 L239.965909,276.545455 C237.681818,274.8125 234.886364,273.772727 231.823864,273.772727 C226.715909,273.772727 222.346591,276.590909 219.994318,280.715909 L167.948864,271.528409 C164.863636,252.931818 137.073864,258.920455 141.289773,276.897727 L104.534091,300.494318 L104.534091,311.323864 L146.215909,284.511364 C152.965909,289.75 162.306818,287.596591 166.346591,280.448864 L218.397727,289.642045 C219.482955,296.096591 225.051136,301.045455 231.823864,301.045455 C240.409091,301.045455 247.272727,293.011364 244.982955,284.068182 L291.857955,252.840909 C304.818182,262.5625 320.931818,245.272727 310.215909,233.022727 L336.380682,186.590909 C347.568182,190.539773 357.801136,179.511364 353.5625,168.767045 L395.465909,150.8125 L395.465909,140.914773 Z" id="Fill-5" fill="#FFFFFF" sketch:type="MSShapeGroup"></path>
            <path d="M268.176136,223.767045 L231.823864,251.045455 L195.443182,223.767045 L195.443182,141.954545 L268.176136,141.954545 L268.176136,223.767045 Z" id="Fill-6" fill="#FFFFFF" sketch:type="MSShapeGroup"></path>
            <path d="M231.977273,160.823864 C233.977273,160.823864 235.573864,162.420455 235.573864,164.420455 L235.573864,165.369318 C239.278409,165.926136 242.585227,167.034091 245.5625,168.698864 C246.869318,169.454545 248.045455,170.767045 248.045455,172.829545 C248.045455,175.448864 245.982955,177.443182 243.363636,177.443182 C242.522727,177.443182 241.698864,177.244318 240.943182,176.823864 C239.011364,175.784091 237.085227,174.960227 235.215909,174.471591 L235.215909,184.971591 C245.693182,187.789773 250.176136,192.051136 250.176136,199.772727 C250.176136,207.5 244.25,212.471591 235.573864,213.420455 L235.573864,217.085227 C235.573864,219.085227 233.977273,220.681818 231.977273,220.681818 C229.982955,220.681818 228.403409,219.085227 228.403409,217.085227 L228.403409,213.357955 C223.5,212.732955 218.880682,211.028409 214.823864,208.539773 C213.380682,207.630682 212.471591,206.255682 212.471591,204.392045 C212.471591,201.704545 214.534091,199.704545 217.215909,199.704545 C218.130682,199.704545 219.085227,200.0625 219.903409,200.596591 C222.8125,202.460227 225.5625,203.767045 228.738636,204.477273 L228.738636,193.517045 C218.795455,190.806818 213.909091,187.011364 213.909091,178.823864 C213.909091,171.232955 219.704545,166.125 228.380682,165.238636 L228.380682,164.420455 C228.403409,162.420455 229.982955,160.823864 231.977273,160.823864 L231.977273,160.823864 Z M228.738636,183.170455 L228.738636,173.852273 C225.431818,174.340909 223.988636,176.005682 223.988636,178.198864 C223.988636,180.329545 224.943182,181.795455 228.738636,183.170455 L228.738636,183.170455 Z M235.215909,195.221591 L235.215909,204.8125 C238.460227,204.323864 240.125,202.8125 240.125,200.329545 C240.125,198.0625 238.948864,196.556818 235.215909,195.221591 L235.215909,195.221591 Z" id="Fill-7" fill="#F37A10" sketch:type="MSShapeGroup"></path>
        </g>
    </g>
</svg>