<?xml version="1.0" encoding="UTF-8" standalone="no"?>
<svg width="900px" height="650px" viewBox="0 0 900 650" version="1.1" xmlns="http://www.w3.org/2000/svg" xmlns:xlink="http://www.w3.org/1999/xlink" xmlns:sketch="http://www.bohemiancoding.com/sketch/ns">
    <!-- Generator: Sketch 3.2.2 (9983) - http://www.bohemiancoding.com/sketch -->
    <title>Untitled</title>
    <desc>Created with Sketch.</desc>
    <defs></defs>
    <g id="Page-1" stroke="none" stroke-width="1" fill="none" fill-rule="evenodd" sketch:type="MSPage">
        <rect id="Rectangle-1" fill="#F2F2F2" sketch:type="MSShapeGroup" x="0" y="0" width="900" height="650"></rect>
        <g id="Graph-Magnifier" sketch:type="MSLayerGroup" transform="translate(200.000000, 75.000000)">
            <path d="M500,250 C500,388.073864 388.073864,500 250,500 C111.926136,500 0,388.073864 0,250 C0,111.926136 111.926136,0 250,0 C388.073864,0 500,111.926136 500,250 L500,250 Z" id="Fill-1" fill="#25B7D3" sketch:type="MSShapeGroup"></path>
            <path d="M122.738636,377.261364 L122.738636,113.636364 C122.738636,108.619318 118.653409,104.534091 113.636364,104.534091 C108.619318,104.534091 104.534091,108.619318 104.534091,113.636364 L104.534091,395.465909 L386.363636,395.465909 C391.380682,395.465909 395.465909,391.380682 395.465909,386.363636 C395.465909,381.346591 391.380682,377.261364 386.363636,377.261364 L122.738636,377.261364 Z" id="Fill-2" fill="#F0F1F1" sketch:type="MSShapeGroup"></path>
            <path d="M149.988636,304.556818 L204.545455,304.556818 L204.545455,377.267045 L149.988636,377.267045 L149.988636,304.556818 Z" id="Fill-3" fill="#0484AB" sketch:type="MSShapeGroup"></path>
            <path d="M231.823864,254.551136 L286.357955,254.551136 L286.357955,377.267045 L231.823864,377.267045 L231.823864,254.551136 Z" id="Fill-4" fill="#0484AB" sketch:type="MSShapeGroup"></path>
            <path d="M313.630682,154.539773 L368.1875,154.539773 L368.1875,377.261364 L313.630682,377.261364 L313.630682,154.539773 Z" id="Fill-5" fill="#0484AB" sketch:type="MSShapeGroup"></path>
            <path d="M319.426136,203.011364 C321.244318,161.596591 289.176136,126.551136 247.755682,124.710227 C206.340909,122.892045 171.278409,154.960227 169.454545,196.375 C168.880682,209.272727 171.607955,221.568182 176.869318,232.420455 L111.880682,297.5625 C117.096591,313.164773 127.528409,323.573864 143.130682,328.744318 L207.011364,264.715909 C217.107955,270.528409 228.670455,274.147727 241.102273,274.681818 C282.517045,276.522727 317.585227,244.431818 319.426136,203.011364 L319.426136,203.011364 Z" id="Fill-6" fill="#9CE5F4" sketch:type="MSShapeGroup"></path>
            <path d="M247.755682,124.710227 C206.340909,122.892045 171.278409,154.960227 169.454545,196.375 C168.880682,209.272727 171.607955,221.568182 176.869318,232.420455 L111.880682,297.5625 C114.789773,306.261364 119.363636,313.278409 125.511364,318.738636 L297.494318,146.75 C284.6875,133.897727 267.289773,125.579545 247.755682,124.710227 L247.755682,124.710227 Z" id="Fill-7" fill="#C9F2F8" sketch:type="MSShapeGroup"></path>
            <path d="M298.051136,199.704545 C298.051136,229.3125 274.034091,253.306818 244.431818,253.306818 C214.823864,253.306818 190.829545,229.3125 190.829545,199.704545 C190.829545,170.102273 214.823864,146.085227 244.431818,146.085227 C274.034091,146.085227 298.051136,170.102273 298.051136,199.704545 L298.051136,199.704545 Z" id="Fill-8" fill="#40C9E7" sketch:type="MSShapeGroup"></path>
            <path d="M246.806818,146.153409 C217.215909,144.840909 192.181818,167.744318 190.875,197.329545 C190.164773,213 196.335227,227.363636 206.607955,237.613636 L282.357955,161.886364 C273.215909,152.698864 260.767045,146.75 246.806818,146.153409 L246.806818,146.153409 Z" id="Fill-9" fill="#6FDAF1" sketch:type="MSShapeGroup"></path>
            <path d="M176.869318,232.420455 L111.880682,297.5625 C117.096591,313.164773 127.528409,323.573864 143.130682,328.744318 L207.011364,264.715909 C193.982955,257.193182 183.414773,245.9375 176.869318,232.420455 L176.869318,232.420455 Z" id="Fill-10" fill="#84462D" sketch:type="MSShapeGroup"></path>
            <path d="M176.869318,232.420455 L111.880682,297.5625 C114.789773,306.261364 119.363636,313.278409 125.511364,318.738636 L191.471591,252.772727 C185.545455,246.869318 180.551136,240.011364 176.869318,232.420455 L176.869318,232.420455 Z" id="Fill-11" fill="#9C6144" sketch:type="MSShapeGroup"></path>
            <path d="M193.204545,278.539773 L207.011364,264.715909 C193.960227,257.193182 183.414773,245.9375 176.869318,232.420455 L161.954545,247.357955 L193.204545,278.539773 Z" id="Fill-12" fill="#F3B607" sketch:type="MSShapeGroup"></path>
            <path d="M176.869318,232.420455 L161.954545,247.357955 L179.420455,264.801136 L191.471591,252.772727 C185.545455,246.869318 180.551136,240.011364 176.869318,232.420455 L176.869318,232.420455 Z" id="Fill-13" fill="#FBE158" sketch:type="MSShapeGroup"></path>
        </g>
    </g>
</svg>