<?xml version="1.0" encoding="UTF-8" standalone="no"?>
<svg width="900px" height="650px" viewBox="0 0 900 650" version="1.1" xmlns="http://www.w3.org/2000/svg" xmlns:xlink="http://www.w3.org/1999/xlink" xmlns:sketch="http://www.bohemiancoding.com/sketch/ns">
    <!-- Generator: Sketch 3.2.2 (9983) - http://www.bohemiancoding.com/sketch -->
    <title>Untitled</title>
    <desc>Created with Sketch.</desc>
    <defs></defs>
    <g id="Page-1" stroke="none" stroke-width="1" fill="none" fill-rule="evenodd" sketch:type="MSPage">
        <rect id="Rectangle-1" fill="#F2F2F2" sketch:type="MSShapeGroup" x="0" y="0" width="900" height="650"></rect>
        <g id="Clipboard-Plan" sketch:type="MSLayerGroup" transform="translate(200.000000, 75.000000)">
            <path d="M500,250 C500,388.073864 388.073864,500 250,500 C111.926136,500 0,388.073864 0,250 C0,111.926136 111.926136,0 250,0 C388.073864,0 500,111.926136 500,250 L500,250 Z" id="Fill-1" fill="#E04F5F" sketch:type="MSShapeGroup"></path>
            <path d="M368.1875,154.539773 C368.1875,149.522727 364.125,145.465909 359.085227,145.465909 L140.914773,145.465909 C135.875,145.465909 131.8125,149.522727 131.8125,154.539773 L131.8125,386.363636 C131.8125,391.380682 135.875,395.465909 140.914773,395.465909 L359.085227,395.465909 C364.125,395.465909 368.1875,391.380682 368.1875,386.363636 L368.1875,154.539773 Z" id="Fill-2" fill="#84462D" sketch:type="MSShapeGroup"></path>
            <path d="M149.988636,163.642045 L350.005682,163.642045 L350.005682,377.267045 L149.988636,377.267045 L149.988636,163.642045 Z" id="Fill-3" fill="#FFFFFF" sketch:type="MSShapeGroup"></path>
            <path d="M295.454545,131.8125 L277.278409,131.8125 C277.278409,116.767045 265.068182,104.534091 250,104.534091 C234.931818,104.534091 222.721591,116.767045 222.721591,131.8125 L204.545455,131.8125 C199.528409,131.8125 195.443182,135.897727 195.443182,140.914773 L195.443182,177.267045 C195.443182,182.284091 199.528409,186.369318 204.545455,186.369318 L295.454545,186.369318 C300.471591,186.369318 304.556818,182.284091 304.556818,177.267045 L304.556818,140.914773 C304.556818,135.897727 300.471591,131.8125 295.454545,131.8125 L295.454545,131.8125 Z M250,113.636364 C255.017045,113.636364 259.102273,117.721591 259.102273,122.738636 C259.102273,127.75 255.017045,131.8125 250,131.8125 C244.982955,131.8125 240.897727,127.75 240.897727,122.738636 C240.897727,117.721591 244.982955,113.636364 250,113.636364 L250,113.636364 Z" id="Fill-4" fill="#FACB1B" sketch:type="MSShapeGroup"></path>
            <path d="M270.772727,356.823864 C255.727273,356.823864 243.494318,344.573864 243.494318,329.545455 C243.494318,314.517045 255.727273,302.267045 270.772727,302.267045 C285.823864,302.267045 298.051136,314.517045 298.051136,329.545455 C298.051136,344.573864 285.823864,356.823864 270.772727,356.823864 L270.772727,356.823864 Z M270.772727,315.920455 C263.25,315.920455 257.147727,322.022727 257.147727,329.545455 C257.147727,337.068182 263.25,343.170455 270.772727,343.170455 C278.295455,343.170455 284.426136,337.068182 284.426136,329.545455 C284.426136,322.022727 278.295455,315.920455 270.772727,315.920455 L270.772727,315.920455 Z" id="Fill-5" fill="#DF2C2C" sketch:type="MSShapeGroup"></path>
            <path d="M327.926136,244.295455 L319.670455,236.039773 L307.306818,248.403409 L294.920455,236.039773 L286.6875,244.295455 L299.051136,256.659091 L286.6875,269.022727 L294.920455,277.278409 L307.306818,264.914773 L319.670455,277.278409 L327.926136,269.022727 L315.539773,256.659091 L327.926136,244.295455 Z" id="Fill-6" fill="#5B5C5F" sketch:type="MSShapeGroup"></path>
            <path d="M218.505682,217.329545 L210.25,209.096591 L197.886364,221.460227 L185.193182,208.761364 L176.960227,217.017045 L189.630682,229.715909 L177.267045,242.073864 L185.522727,250.335227 L197.886364,237.948864 L209.9375,250 L218.170455,241.744318 L206.142045,229.715909 L218.505682,217.329545 Z" id="Fill-7" fill="#5B5C5F" sketch:type="MSShapeGroup"></path>
            <path d="M268.931818,236.375 L232.130682,240.676136 L242.278409,251.329545 C228.471591,259.545455 193.517045,285.755682 193.517045,340.909091 C193.517045,344.681818 196.556818,347.721591 200.329545,347.721591 C204.102273,347.721591 207.142045,344.681818 207.142045,340.909091 C207.142045,287.6875 244.142045,265.602273 251.977273,261.539773 L262.761364,272.903409 L268.931818,236.375 Z" id="Fill-8" fill="#DF2C2C" sketch:type="MSShapeGroup"></path>
            <path d="M295.454545,131.8125 L277.278409,131.8125 C277.278409,116.767045 265.068182,104.534091 250,104.534091 C234.931818,104.534091 222.721591,116.767045 222.721591,131.8125 L204.545455,131.8125 C199.528409,131.8125 195.443182,135.897727 195.443182,140.914773 L195.443182,159.090909 L304.556818,159.090909 L304.556818,140.914773 C304.556818,135.897727 300.471591,131.8125 295.454545,131.8125 L295.454545,131.8125 Z M250,131.8125 C244.982955,131.8125 240.897727,127.75 240.897727,122.738636 C240.897727,117.721591 244.982955,113.636364 250,113.636364 C255.017045,113.636364 259.102273,117.721591 259.102273,122.738636 C259.102273,127.75 255.017045,131.8125 250,131.8125 L250,131.8125 Z" id="Fill-9" fill="#FBE158" sketch:type="MSShapeGroup"></path>
        </g>
    </g>
</svg>